# xmcd
#
# Track frame offsets:
#	150
#	15672
#	44547
#	79047
#	95922
#	113375
#	132800
#	150725
#	174870
#	200557
#	216230
#	235355
#	253205
#	271052
#	290552
#	301875
#	319500
#
# Disc length: 4440
#
# Revision: 1
# Processed by: cddbd v1.5.1PL0 Copyright (c) Steve Scherf et al.
# Submitted via: audiograbber 1.81.02
# Normalized: r0:DSETVAR2
#
DISCID=e8115611
DTITLE=Various Artist - Dancing Class 1 (2CD) Cd2 - Slow Dance
DYEAR=1996
DGENRE=Ballad
TTITLE0=Chris de Burgh - Moonlight in vodka
TTITLE1=Peter Gabriel - Don't give up
TTITLE2=Gazebo - I like Chopin
TTITLE3=Michael Jackson - Liberian girl
TTITLE4=Vanessa Paradis - Joe le Taxi
TTITLE5=Belinda Carlisle - Circle in the sand
TTITLE6=Kylie Minogue and Jason Donovan - Especially for you
TTITLE7=Samantha Fox - Even in the darkest hours
TTITLE8=Mike and The Mechanics - Silent running
TTITLE9=Pet Shop Boys - Rent
TTITLE10=Bonnie Tyler - Islands
TTITLE11=Erasure - Ship of fools
TTITLE12=Sandra - Secret land
TTITLE13=Hubert Kah - Midnight sun
TTITLE14=Jason Donovan - Sealed with a kiss
TTITLE15=Stephanie - I'm waiting for you
TTITLE16=Rick Astley - When I fall in love
EXTD=
EXTT0=
EXTT1=
EXTT2=
EXTT3=
EXTT4=
EXTT5=
EXTT6=
EXTT7=
EXTT8=
EXTT9=
EXTT10=
EXTT11=
EXTT12=
EXTT13=
EXTT14=
EXTT15=
EXTT16=
PLAYORDER=
